<?xml version="1.0" encoding="UTF-8" standalone="no"?>
<!DOCTYPE svg PUBLIC "-//W3C//DTD SVG 1.1//EN" "http://www.w3.org/Graphics/SVG/1.1/DTD/svg11.dtd">
<svg width="100%" height="100%" viewBox="0 0 1080 1080" version="1.1" xmlns="http://www.w3.org/2000/svg" xmlns:xlink="http://www.w3.org/1999/xlink" xml:space="preserve" xmlns:serif="http://www.serif.com/" style="fill-rule:evenodd;clip-rule:evenodd;stroke-linejoin:round;stroke-miterlimit:2;">
    <g id="full-width" transform="matrix(1.22727,0,0,1.22727,-122.727,-122.727)">
        <g transform="matrix(2.43558,0,0,2.43558,-775.212,-775.212)">
            <circle cx="540" cy="540" r="160" style="fill:rgb(30,29,47);"/>
        </g>
        <path d="M540,100C782.843,100 980,297.157 980,540C980,782.843 782.843,980 540,980C297.157,980 100,782.843 100,540C100,297.157 297.157,100 540,100ZM540,196.836C350.602,196.836 196.836,350.602 196.836,540C196.836,729.398 350.602,883.164 540,883.164C729.398,883.164 883.164,729.398 883.164,540C883.164,350.602 729.398,196.836 540,196.836Z" style="fill:rgb(70,77,121);"/>
        <clipPath id="_clip1">
            <path d="M540,100C782.843,100 980,297.157 980,540C980,782.843 782.843,980 540,980C297.157,980 100,782.843 100,540C100,297.157 297.157,100 540,100ZM540,196.836C350.602,196.836 196.836,350.602 196.836,540C196.836,729.398 350.602,883.164 540,883.164C729.398,883.164 883.164,729.398 883.164,540C883.164,350.602 729.398,196.836 540,196.836Z"/>
        </clipPath>
        <g clip-path="url(#_clip1)">
            <g transform="matrix(0.937553,0.347843,-0.347843,0.937553,221.557,-154.114)">
                <path d="M540,540L846.598,121.61L736.267,39.134L540,540Z" style="fill:rgb(65,64,106);"/>
            </g>
            <g transform="matrix(0.937553,0.347843,-0.347843,0.937553,221.557,-154.114)">
                <path d="M540,540L870.247,85.484L1037.61,320L540,540Z" style="fill:rgb(108,75,130);"/>
            </g>
            <g transform="matrix(0.937553,0.347843,-0.347843,0.937553,221.557,-154.114)">
                <path d="M540,540L1091.76,675.738L1037.61,320L540,540Z" style="fill:rgb(140,82,122);"/>
            </g>
            <g transform="matrix(0.937553,0.347843,-0.347843,0.937553,221.557,-154.114)">
                <path d="M540,540L1091.76,675.738L997.918,811.869L540,540Z" style="fill:rgb(166,106,157);"/>
            </g>
            <g transform="matrix(0.937553,0.347843,-0.347843,0.937553,221.557,-154.114)">
                <path d="M540,540L736.267,1012.23L997.918,811.869L540,540Z" style="fill:rgb(177,104,115);"/>
            </g>
            <g transform="matrix(0.937553,0.347843,-0.347843,0.937553,221.557,-154.114)">
                <path d="M540,540L736.267,1012.23L232.643,1012.23L540,540Z" style="fill:rgb(231,166,124);"/>
            </g>
        </g>
        <g transform="matrix(1.86984,0,0,1.86984,-525.811,-474.011)">
            <path d="M465.43,560L500,525.43L517.285,542.715C517.285,542.715 540,565.43 540,565.43L640,465.43L674.57,500L557.285,617.285C547.739,626.831 532.261,626.831 522.715,617.285L465.43,560Z" style="fill:rgb(249,235,222);"/>
        </g>
    </g>
</svg>
